<svg id="图层_1" data-name="图层 1" xmlns="http://www.w3.org/2000/svg" viewBox="0 0 154.17 154.16">
    <defs>
        <style>
            .cls-1{fill:gray;}.cls-2{fill:#4d4d4d;}.cls-3{fill:#f2f2f2;}.cls-4{fill:none;stroke:#4d4d4d;stroke-miterlimit:10;stroke-width:3px;}
        </style>
    </defs>
    <title>猫猫博客UI</title>
    <path class="cls-1" d="M85,8A77.08,77.08,0,1,1,8,85,77.08,77.08,0,0,1,85,8Z" transform="translate(-7.96 -7.96)"/>
    <path class="cls-2"
          d="M107.07,140.32a41.39,41.39,0,0,0,15-1.12,13.3,13.3,0,0,0,9.49-9.37C134,122,136.94,115,144,110.23c4.82-3.22-.21-10.68-5-7.46a37.32,37.32,0,0,0-14.07,18.31c-.71,2-1.24,3.94-1.83,5.93a4.31,4.31,0,0,1-2.2,3.11c-3.53,1.67-8.31,1.7-12.09,1.37-2.42-.21-4.78,1-5.28,3.56-.43,2.2,1.12,5.06,3.56,5.28Z"
          transform="translate(-7.96 -7.96)"/>
    <path class="cls-2" d="M125.49,87q6.66-.5,13.33-.34c.64,0,.56-1-.08-1q-6.68-.15-13.33.34a.5.5,0,0,0,.08,1Z"
          transform="translate(-7.96 -7.96)"/>
    <path class="cls-2"
          d="M124.39,91.61a69,69,0,0,0,9.42,7.91c.52.36,1.19-.38.66-.75A69,69,0,0,1,125,90.86c-.46-.46-1.11.3-.66.75Z"
          transform="translate(-7.96 -7.96)"/>
    <path class="cls-2"
          d="M118.75,99.09a37.16,37.16,0,0,0,6.71,9.12c.46.46,1.11-.3.66-.75a36.31,36.31,0,0,1-6.54-8.93c-.3-.57-1.12,0-.83.56Z"
          transform="translate(-7.96 -7.96)"/>
    <path class="cls-2"
          d="M33.83,82.3a126.42,126.42,0,0,0,12.67-.17.5.5,0,0,0-.08-1,126.42,126.42,0,0,1-12.67.17c-.64,0-.56,1,.08,1Z"
          transform="translate(-7.96 -7.96)"/>
    <path class="cls-2"
          d="M35.18,93.11A103.23,103.23,0,0,0,47,90.31c.62-.19.29-1.13-.33-.94A101,101,0,0,1,35.1,92.11c-.63.11-.56,1.11.08,1Z"
          transform="translate(-7.96 -7.96)"/>
    <path class="cls-2"
          d="M42.28,102.64a33.21,33.21,0,0,0,8.79-5.38c.49-.41-.07-1.25-.56-.83A32.35,32.35,0,0,1,42,101.69c-.59.25-.27,1.19.33.94Z"
          transform="translate(-7.96 -7.96)"/>
    <path class="cls-3"
          d="M113.41,123.92c.25,3.52,0,11.81-8.87,15.81s-32,2.14-41.21-.43a16.89,16.89,0,0,1-12.46-14c-.59-5,3.11-12.43,8.27-16.85a8.46,8.46,0,0,0,2.23-3.77l.1-.57c-1.54-.27-3.06-.59-4.6-.88-10.67-2-18.49-7.07-18.58-20.34-.06-8.75,5.33-18.09,14.84-21l2.24-.37c-.57-.76-.18-1.57,0-2.24,3.13-9.76,6.86-19.19,13.8-27.05,3.27-3.72,4.94-3.53,7.2,1.14s2.73,9.7,3.74,14.64c.81,4,.28,8.15,1.65,11.94,1.82.25,3.44-.09,5.09.39,2.15.63,3.47-.57,4.1-2.58.31-1,.43-2,.77-3,2.92-8.34,6.44-16.33,13.09-22.53,2-1.83,3.52-1.47,4.86.43a16.65,16.65,0,0,1,1.9,4.1c2.88,8.38,3.4,17.14,4.15,25.87,1.12.37,2.26.7,3.36,1.13,7.6,3,11.79,10.91,11.79,19.78,0,10.75-6.5,17.75-17.39,21.17a29.33,29.33,0,0,1-5.69,1.1l0,.32C111.4,112,112.83,115.52,113.41,123.92Z"
          transform="translate(-7.96 -7.96)"/>
    <path class="cls-4"
          d="M98.13,106.51c3.21-.39,6.48-.38,9.7-.7a29.33,29.33,0,0,0,5.69-1.1c10.89-3.42,17.39-10.42,17.39-21.17,0-8.87-4.19-16.79-11.79-19.78-1.1-.43-2.24-.76-3.36-1.13-.75-8.73-1.27-17.49-4.15-25.87a16.65,16.65,0,0,0-1.9-4.1c-1.34-1.9-2.9-2.26-4.86-.43-6.65,6.2-10.17,14.19-13.09,22.53-.34,1-.46,2-.77,3-.63,2-2,3.21-4.1,2.58-1.65-.48-3.27-.14-5.09-.39C80.43,56.15,81,52,80.15,48c-1-4.94-1.49-10-3.74-14.64s-3.93-4.86-7.2-1.14c-6.94,7.86-10.67,17.29-13.8,27.05-.22.67-.61,1.48,0,2.24l-2.24.37c-9.51,2.87-14.9,12.21-14.84,21,.09,13.27,7.91,18.35,18.58,20.34,1.54.29,3.06.61,4.6.88a34.09,34.09,0,0,0,5.16.57"
          transform="translate(-7.96 -7.96)"/>
    <path class="cls-4"
          d="M61.37,104.63a8.46,8.46,0,0,1-2.23,3.77c-5.16,4.42-8.86,11.9-8.27,16.85a16.89,16.89,0,0,0,12.46,14c9.17,2.57,32.52,4.32,41.21.43s9.12-12.29,8.87-15.81c-.58-8.4-2-12-5.54-17.79"
          transform="translate(-7.96 -7.96)"/>
</svg>